<svg xmlns="http://www.w3.org/2000/svg" width="150.386" height="91.736" viewBox="0 0 150.386 91.736">
  <g id="Group_179190" data-name="Group 179190" transform="translate(-207 -4207.146)">
    <circle id="Ellipse_15" data-name="Ellipse 15" cx="10" cy="10" r="10" transform="translate(320.75 4275.146)" fill="#007cc3"/>
    <circle id="Ellipse_14" data-name="Ellipse 14" cx="5" cy="5" r="5" transform="translate(325.75 4280.146)" fill="#4fb6e8"/>
    <circle id="Ellipse_12" data-name="Ellipse 12" cx="10" cy="10" r="10" transform="translate(255.75 4275.146)" fill="#027cc3"/>
    <path id="Subtraction_14" data-name="Subtraction 14" d="M-4848.228-14H-4860a7.008,7.008,0,0,1-7-7V-73a7.008,7.008,0,0,1,7-7h62a7.008,7.008,0,0,1,7,7v52a7.008,7.008,0,0,1-7,7h-29.271a12.024,12.024,0,0,0-10.479-6.146A12.02,12.02,0,0,0-4848.228-14Z" transform="translate(5102.75 4289.146)" fill="#fac914"/>
    <path id="Subtraction_5" data-name="Subtraction 5" d="M82.216,70.083l-.659,0h-.011l-.648,0H78.024l-18.559,0h-10.9a2.115,2.115,0,0,1-.941-.136,1.68,1.68,0,0,1-.965-1.6,1.658,1.658,0,0,1,.452-1.224,1.8,1.8,0,0,1,1.3-.547l.5,0,.607,0h.01l.6,0,26.49,0,.049-.7,0-.045c0-.029,0-.056.006-.081.007-.08.016-.18.016-.285V47.2q0-19.358,0-38.716a3.355,3.355,0,0,0-1.562-3.111A3.028,3.028,0,0,0,73.62,4.94c-19.442-.017-39.212-.019-58.331-.021h-4.3c-.9,0-1.852,0-2.8.009A3.167,3.167,0,0,0,5.027,7.892c-.018.354-.013.7-.009,1.031,0,.146,0,.292,0,.437v7.026c0,13.887,0,30.219,0,46.062A10.116,10.116,0,0,0,5.14,64.1,3.138,3.138,0,0,0,8.052,66.56l2.983,0h.426c2.183,0,4.435.005,6.646.021a3.044,3.044,0,0,1,1.092.192,1.286,1.286,0,0,1,.823,1.121,2.962,2.962,0,0,1-.1,1.193,1.346,1.346,0,0,1-1.392.964c-1.437.024-2.832.027-4.125.027H10.549c-.793,0-1.727,0-2.645-.015a6.05,6.05,0,0,1-3.645-1.341,7.063,7.063,0,0,1-2.451-3.538,7.334,7.334,0,0,1-.308-2.3V8.8A8.047,8.047,0,0,1,1.715,6.47a7.117,7.117,0,0,1,2.453-3.6A6.57,6.57,0,0,1,7.313,1.508a1.5,1.5,0,0,1,.158.022H7.48c.066.011.141.024.221.033l.044,0h.044l1.246-.016c.767-.01,1.722-.023,2.629-.023q15.774,0,31.549,0h.425l25.911,0c.925,0,1.864-.007,2.772-.014l.221,0,1.367-.01.039,0,.04,0,.141.009.15.007a2.042,2.042,0,0,1,.21.014,6.492,6.492,0,0,1,4.56,2.925,7.7,7.7,0,0,1,1.167,4.529c0,1.377,0,2.815,0,4.083q0,.9,0,1.788v1.571H91.592c4.976,0,8.451,0,11.62,0a3.627,3.627,0,0,1,.751.086c.463.1.808.4,1.232,1.067,1.056,1.66,1.939,3.045,2.778,4.356q1.749,2.733,3.5,5.465l.79,1.234c3.617,5.649,7.465,11.66,11.25,17.584.387.605.753,1.239,1.107,1.851.213.368.42.727.631,1.08a.784.784,0,0,0,.082.114v14.8a.9.9,0,0,0-.127.3,6.572,6.572,0,0,1-4.159,5.183,6.493,6.493,0,0,1-2.414.517h-.04c-.41,0-.837,0-1.354,0H115.8c-.653,0-1.512,0-2.375-.018a1.469,1.469,0,0,1-1.334-.846,1.9,1.9,0,0,1-.1-1.682,1.432,1.432,0,0,1,.954-.843,3.393,3.393,0,0,1,.786-.105c.781-.007,1.577-.007,2.347-.007.746,0,1.517,0,2.278-.006a4.753,4.753,0,0,0,1.105-.141,3,3,0,0,0,2.3-3c.027-4.331.052-8.572.066-12.836a2,2,0,0,0-.3-1.05c-1.514-2.386-3.06-4.8-4.556-7.142l-.125-.2-.779-1.218-3.558-5.559-2.083-3.254-2.119-3.31L107.181,27.1c-1.351-2.113-2.79-4.363-4.226-6.593a1.263,1.263,0,0,0-1.008-.554H99.424c-5.524,0-11.2.006-16.025.012l-3.182,0v9.623q0,17.407,0,34.814c0,.139,0,.279-.008.427v.027c-.007.21-.014.434-.009.664a1.33,1.33,0,0,0,.134.521l.012.028.012.028.165.468.573.038.081,0c.276,0,.55-.01.815-.019l.043,0c.257-.01.531-.02.8-.02a5.3,5.3,0,0,1,1.265.125,1.421,1.421,0,0,1,.992,1.191c0,.091.005.182.009.273v.006a2.8,2.8,0,0,1-.023.712,1.54,1.54,0,0,1-1.517,1.2C83.162,70.078,82.747,70.083,82.216,70.083Z" transform="translate(232.055 4207.129)"/>
    <path id="Subtraction_9" data-name="Subtraction 9" d="M3.578,5.036H3.57A1.868,1.868,0,0,1,1.651,3.853a3.012,3.012,0,0,1-.119-.341l0-.006c-.009-.026-.017-.053-.025-.079L1.5,3.408V2.972a.833.833,0,0,0,.1-.184A1.8,1.8,0,0,1,3.476,1.5H6.8c4.069,0,8.126,0,11.206,0,1.26,0,1.641.547,1.832,1.022a1.907,1.907,0,0,1-.1,1.744,1.6,1.6,0,0,1-1.337.7c-1.418.056-2.871.057-4.275.058h-.974c-.852,0-1.791,0-3.138,0H6.642C5.329,5.033,4.413,5.034,3.578,5.036Z" transform="translate(207 4237.109)"/>
    <path id="Subtraction_10" data-name="Subtraction 10" d="M3.5,5.037H3.5A1.738,1.738,0,0,1,2.03,4.475a2.829,2.829,0,0,1-.26-.422l0-.008c-.06-.112-.116-.214-.181-.32-.025-.041-.052-.083-.084-.129V3.053l.094-.2L1.61,2.8A1.812,1.812,0,0,1,3.336,1.509C6.265,1.5,8.708,1.5,11.022,1.5c2.626,0,4.95,0,7.1.012,1.314.005,1.6.717,1.7.95a2.007,2.007,0,0,1-.049,1.778A1.7,1.7,0,0,1,18.406,5c-.279.027-.564.031-.781.031l-.381,0h-.131l-.264,0H12.3C9.5,5.031,6.507,5.032,3.5,5.037Z" transform="translate(207 4257.138)"/>
    <path id="Subtraction_8" data-name="Subtraction 8" d="M11.7,5.017c-2.308,0-5.04,0-7.794-.01a4.059,4.059,0,0,1-1.223-.149A1.621,1.621,0,0,1,1.558,3.529l0-.005A.745.745,0,0,0,1.5,3.352V2.966a.819.819,0,0,0,.109-.221A1.969,1.969,0,0,1,2.828,1.539a1.522,1.522,0,0,1,.4-.034H3.36c1.768,0,4.537,0,7.691,0,2.791,0,5.056,0,7.131.006a1.633,1.633,0,0,1,1.547.764,1.906,1.906,0,0,1,.094,1.847,1.7,1.7,0,0,1-1.448.876c-.276.022-.569.023-.821.023H11.7Z" transform="translate(207 4217.058)"/>
    <path id="Path_95331_-_Outline" data-name="Path 95331 - Outline" d="M195.546,307.515H192l-.014-1.711h3.572Z" transform="translate(71.619 3991.368)" fill="#fff"/>
    <path id="Path_95332_-_Outline" data-name="Path 95332 - Outline" d="M417.846,307.517H414l-.014-1.712,3.159,0Z" transform="translate(-85.175 3991.365)" fill="#fff"/>
    <path id="Path_95333" data-name="Path 95333" d="M.141,176.343l-.141.3v-.367l.141.07" transform="translate(207.75 4083.382)"/>
    <path id="Path_95333_-_Outline" data-name="Path 95333 - Outline" d="M-.191,177.015-.227,177l-.111-.055.1-.188-.507-.114v-1.587l1.088.55.1.048.7.346-.458.964-.758-.171Z" transform="translate(207.75 4083.382)" fill="#fff"/>
    <path id="Subtraction_6" data-name="Subtraction 6" d="M14.175,24.95h0l-1.691,0h-.157A10.945,10.945,0,0,1,5.733,22.19,11.393,11.393,0,0,1,2.028,16.51,13.156,13.156,0,0,1,1.7,14.856l0-.017c-.03-.19-.06-.385-.094-.58a8.352,8.352,0,0,1,.225-3.565A12.6,12.6,0,0,1,4.343,5.669,12.142,12.142,0,0,1,8.9,2.381a10.578,10.578,0,0,1,4.18-.88,10.275,10.275,0,0,1,1.065.056A12.318,12.318,0,0,1,20.389,3.87a12.349,12.349,0,0,1,3.928,5.384,10.3,10.3,0,0,1,.692,3.609,11.811,11.811,0,0,1-.867,4.907A12.239,12.239,0,0,1,21.29,21.85,11.367,11.367,0,0,1,16.983,24.4,12.158,12.158,0,0,1,14.175,24.95ZM13.149,5.021c-.219,0-.45.006-.687.018a7.542,7.542,0,0,0-4.936,2.3,8.174,8.174,0,0,0-2.5,6.692A8.273,8.273,0,0,0,7.49,19.193a7.61,7.61,0,0,0,5.35,2.337c.072,0,.151,0,.239,0h.128A8.2,8.2,0,0,0,21.5,12.4a8.063,8.063,0,0,0-8.355-7.377Z" transform="translate(317.252 4272.224)"/>
    <path id="Subtraction_7" data-name="Subtraction 7" d="M14.229,24.914H12.26a11.206,11.206,0,0,1-6.981-3.127,11.5,11.5,0,0,1-3.307-5.346,11.92,11.92,0,0,1-.453-2.684,10.736,10.736,0,0,1,.728-4.6A11.767,11.767,0,0,1,9.157,2.239,10.692,10.692,0,0,1,12.98,1.5h.185a11.2,11.2,0,0,1,3.776.581,12.186,12.186,0,0,1,4.715,2.931,12.372,12.372,0,0,1,2.837,4.783,10.515,10.515,0,0,1,.489,4.36,12.163,12.163,0,0,1-.62,2.819A11.928,11.928,0,0,1,21.4,21.7a12.165,12.165,0,0,1-4.849,2.777,10.357,10.357,0,0,1-1.564.314l-.014,0-.014,0c-.239.035-.486.072-.732.116ZM12.768,5a7.664,7.664,0,0,0-5.4,2.434A8.4,8.4,0,0,0,4.95,12.92a8.447,8.447,0,0,0,2.38,6.1,8.219,8.219,0,0,0,5.955,2.5c.162,0,.327,0,.49-.014a8.254,8.254,0,0,0,7.73-9.015,7.952,7.952,0,0,0-2.252-5.038A8.071,8.071,0,0,0,13.289,5c-.1,0-.187,0-.266,0C12.927,5,12.844,5,12.768,5Z" transform="translate(252.127 4272.257)"/>
    <path id="Path_95336" data-name="Path 95336" d="M183.334,116.148c.252-.294.488-.609.762-.885q5.563-5.572,11.136-11.136c.406-.407.8-.825,1.2-1.236a2.447,2.447,0,0,1,2.6-.614,2.348,2.348,0,0,1,1.672,2.026,2.38,2.38,0,0,1-.74,2.208q-3.763,3.765-7.532,7.523-3.5,3.485-7.005,6.959c-.165.164-.336.322-.513.472a2.512,2.512,0,0,1-3.581-.135q-.811-.849-1.642-1.68-3.947-3.944-7.9-7.882a3.364,3.364,0,0,1-1.022-1.562,1.924,1.924,0,0,1,.133-1.2,2.714,2.714,0,0,1,2.2-1.812,2.073,2.073,0,0,1,1.8.641c.753.735,1.485,1.49,2.235,2.228,2.022,1.991,4.048,3.978,6.191,6.085" transform="translate(87.021 4130.005)" fill="#fff"/>
    <path id="Path_95337" data-name="Path 95337" d="M358.817,221.639l-.08-.006.08.006" transform="translate(-45.618 4051.345)"/>
    <path id="Path_95337_-_Outline" data-name="Path 95337 - Outline" d="M358.768,222.387l-.08-.006.1-1.5.08.006Z" transform="translate(-45.618 4051.345)" fill="#fff"/>
    <path id="Path_95338" data-name="Path 95338" d="M334.991.056l.079,0-.079,0" transform="translate(-28.847 4207.84)"/>
    <path id="Path_95338_-_Outline" data-name="Path 95338 - Outline" d="M335.037.808l-.079,0,.067-1.5.079,0Z" transform="translate(-28.847 4207.84)" fill="#fff"/>
    <path id="Subtraction_12" data-name="Subtraction 12" d="M7.6,12.73H6.661a5.375,5.375,0,0,1-3.348-1.5A5.517,5.517,0,0,1,1.726,8.666a5.717,5.717,0,0,1-.217-1.287,5.149,5.149,0,0,1,.349-2.207A5.643,5.643,0,0,1,5.172,1.855,5.128,5.128,0,0,1,7.006,1.5h.089a5.37,5.37,0,0,1,1.811.278,5.845,5.845,0,0,1,2.261,1.406,5.934,5.934,0,0,1,1.361,2.294,5.043,5.043,0,0,1,.234,2.091,5.833,5.833,0,0,1-.3,1.352,5.721,5.721,0,0,1-1.42,2.268,5.834,5.834,0,0,1-2.326,1.332,4.967,4.967,0,0,1-.75.15H7.956c-.115.017-.233.034-.351.056ZM6.9,3.179A3.676,3.676,0,0,0,4.313,4.347,4.026,4.026,0,0,0,3.155,6.977,4.051,4.051,0,0,0,4.3,9.9a3.942,3.942,0,0,0,2.856,1.2c.078,0,.157,0,.235-.006a3.959,3.959,0,0,0,3.707-4.324,3.814,3.814,0,0,0-1.08-2.416A3.871,3.871,0,0,0,7.154,3.179l-.128,0Z" transform="translate(323.25 4278.35)"/>
    <path id="Path_95460" data-name="Path 95460" d="M5306.778,4120.836s.233-4.464,3.058-4.387,9.007,0,9.007,0a4.45,4.45,0,0,1,2.971,1.467c1.043,1.354,9.648,15.505,9.648,15.505s2.1,3.148-1.37,4.606c-4.074-.012-20.256,0-20.256,0a3.851,3.851,0,0,1-2.772-3.74C5307.1,4131.3,5306.778,4120.836,5306.778,4120.836Z" transform="translate(-4988.865 116.948)" fill="#4fb6e8"/>
    <path id="Path_95459" data-name="Path 95459" d="M5309.764,4115.2h.105c.822.022,2.019.034,3.557.034,2.63,0,5.374-.034,5.4-.034h.044l.044,0a5.622,5.622,0,0,1,3.89,1.953c1.05,1.364,8.78,14.064,9.714,15.6a4.888,4.888,0,0,1,.665,3.8,4.2,4.2,0,0,1-2.607,2.627l-.234.1h-.254c-1.2,0-3.575-.005-7.059-.005-5.933,0-13.122.005-13.193.005h-.166l-.16-.043a5.487,5.487,0,0,1-1.861-.984,4.845,4.845,0,0,1-1.837-3.98c.041-2.921-.281-13.29-.285-13.394v-.052l0-.052a9.807,9.807,0,0,1,.534-2.559C5307.024,4115.59,5308.794,4115.2,5309.764,4115.2Zm3.663,2.535c-1.561,0-2.78-.012-3.625-.035h-.038c-1.4,0-1.7,2.8-1.734,3.167.03.982.324,10.555.284,13.44a2.363,2.363,0,0,0,.847,1.951,3.174,3.174,0,0,0,.88.522c1.221,0,7.619-.005,12.989-.005,3.241,0,5.523,0,6.794,0a1.7,1.7,0,0,0,.963-.937,2.42,2.42,0,0,0-.367-1.728l-.026-.042c-3.445-5.665-8.836-14.438-9.57-15.392a3.186,3.186,0,0,0-2.025-.979C5318.381,4117.7,5315.856,4117.733,5313.426,4117.733Z" transform="translate(-4988.865 116.948)" fill="#202124"/>
    <circle id="Ellipse_13" data-name="Ellipse 13" cx="5" cy="5" r="5" transform="translate(260.75 4280.146)" fill="#4fb6e8"/>
    <path id="Subtraction_13" data-name="Subtraction 13" d="M7.293,5.017c-1.311,0-2.862,0-4.427-.01a1.385,1.385,0,0,1-.695-.149,1.65,1.65,0,0,1-.638-1.329V3.523A1.183,1.183,0,0,0,1.5,3.352V2.966a1.163,1.163,0,0,0,.062-.221,1.831,1.831,0,0,1,.692-1.206A.507.507,0,0,1,2.482,1.5h.075c1,0,2.577,0,4.369,0,1.585,0,2.872,0,4.05.006.422,0,.709.252.879.764a3.206,3.206,0,0,1,.054,1.847c-.154.514-.446.825-.823.876a3.48,3.48,0,0,1-.466.023H7.293Z" transform="translate(316.018 4260.675)"/>
    <path id="Subtraction_11" data-name="Subtraction 11" d="M7.6,12.73H6.661a5.375,5.375,0,0,1-3.348-1.5A5.517,5.517,0,0,1,1.726,8.666a5.717,5.717,0,0,1-.217-1.287,5.149,5.149,0,0,1,.349-2.207A5.643,5.643,0,0,1,5.172,1.855,5.128,5.128,0,0,1,7.006,1.5h.089a5.37,5.37,0,0,1,1.811.278,5.845,5.845,0,0,1,2.261,1.406,5.934,5.934,0,0,1,1.361,2.294,5.043,5.043,0,0,1,.234,2.091,5.833,5.833,0,0,1-.3,1.352,5.721,5.721,0,0,1-1.42,2.268,5.834,5.834,0,0,1-2.326,1.332,4.967,4.967,0,0,1-.75.15H7.956c-.115.017-.233.034-.351.056ZM6.9,3.179A3.676,3.676,0,0,0,4.313,4.347,4.026,4.026,0,0,0,3.155,6.977,4.051,4.051,0,0,0,4.3,9.9a3.942,3.942,0,0,0,2.856,1.2c.078,0,.157,0,.235-.006a3.959,3.959,0,0,0,3.707-4.324,3.814,3.814,0,0,0-1.08-2.416A3.871,3.871,0,0,0,7.154,3.179l-.128,0Z" transform="translate(258.25 4278.35)"/>
  </g>
</svg>
